<?xml version="1.0" encoding="UTF-8"?>
<svg version="1.1" xmlns="http://www.w3.org/2000/svg" width="1024" height="1024">
<path d="M0 0 C337.92 0 675.84 0 1024 0 C1024 337.92 1024 675.84 1024 1024 C686.08 1024 348.16 1024 0 1024 C0 686.08 0 348.16 0 0 Z " fill="#499EF5" transform="translate(0,0)"/>
<path d="M0 0 C337.92 0 675.84 0 1024 0 C1024 128.04 1024 256.08 1024 388 C1006 389.125 1006 389.125 999 389.0625 C998.3090625 389.05798828 997.618125 389.05347656 996.90625 389.04882812 C995.27079178 389.03747078 993.63538054 389.01957237 992 389 C992 389.66 992 390.32 992 391 C990.865625 391.04898437 989.73125 391.09796875 988.5625 391.1484375 C987.04164602 391.2235414 985.52081375 391.29908584 984 391.375 C982.88431641 391.42140625 982.88431641 391.42140625 981.74609375 391.46875 C977.36712134 391.69721813 973.43588902 392.32619172 969.18408203 393.48291016 C964.67025503 394.55157611 960.03912767 394.96443593 955.4375 395.5 C953.30204738 395.75881809 951.16663063 396.01793238 949.03125 396.27734375 C947.02083929 396.51827891 945.01042307 396.75916807 943 397 C940.1444847 397.34504143 937.29092017 397.70011564 934.4375 398.0625 C933.34308594 398.19785156 932.24867188 398.33320313 931.12109375 398.47265625 C927.64675974 399.0596839 924.3766799 399.99796173 921 401 C912.28438584 403.21208481 903.69441179 404.50087334 894.74902344 405.265625 C890.39693588 405.65674097 886.33127311 406.32611677 882.11230469 407.45825195 C877.97099824 408.52038314 873.76146324 409.26630149 869.5625 410.0625 C868.67240234 410.23587891 867.78230469 410.40925781 866.86523438 410.58789062 C862.54924058 411.41073531 858.27489551 412.11485111 853.90234375 412.55859375 C850.22861963 412.56366372 850.22861963 412.56366372 849 414 C846.30764224 414.23678716 843.63501844 414.42198025 840.9375 414.5625 C840.17888672 414.60568359 839.42027344 414.64886719 838.63867188 414.69335938 C836.75934562 414.79973633 834.87969756 414.90039934 833 415 C833 415.66 833 416.32 833 417 C831.71416016 417.16435547 831.71416016 417.16435547 830.40234375 417.33203125 C823.31077699 418.26687216 823.31077699 418.26687216 816.5625 420.5 C811.86264265 422.47888731 807.2465417 422.94788109 802.20703125 423.5703125 C799.18658204 423.91254167 799.18658204 423.91254167 797.02734375 424.5 C793.96945426 425.25416157 790.87774159 425.51985803 787.75 425.875 C782.12383308 426.53315538 776.61057763 427.4263631 771.0625 428.5625 C764.74560325 429.83583579 758.56373276 430.37927772 752.1315918 430.65649414 C747.96916239 430.84636602 743.98481777 431.26012479 739.875 432 C732.52348933 433.26750184 725.13533682 433.42988519 717.69287109 433.65820312 C716.72816895 433.68978516 715.7634668 433.72136719 714.76953125 433.75390625 C713.89917236 433.77783447 713.02881348 433.8017627 712.13208008 433.82641602 C709.9474344 433.87079996 709.9474344 433.87079996 708 435 C705.92360177 435.09681149 703.84403428 435.12796723 701.76538086 435.12939453 C699.79709572 435.13412277 699.79709572 435.13412277 697.78904724 435.13894653 C696.34764574 435.1371554 694.90624454 435.13510411 693.46484375 435.1328125 C691.98710616 435.13348629 690.50936868 435.13445694 689.03163147 435.13571167 C685.92708282 435.13718834 682.82256289 435.13503724 679.71801758 435.13037109 C675.75955602 435.12470864 671.8011628 435.12793072 667.84270382 435.13394356 C664.78586831 435.13757988 661.72904862 435.13639596 658.6722126 435.13381577 C657.21433059 435.13315315 655.7564471 435.13395142 654.29856682 435.13629532 C646.79626972 435.14569972 639.44615599 434.99495413 632 434 C630.41662086 433.98300053 628.83215536 433.99797948 627.25 434.0625 C621.46099327 434.12866008 615.75705611 433.60825956 610 433.0625 C609.06704102 432.97556885 608.13408203 432.8886377 607.17285156 432.79907227 C600.38717351 432.12905784 600.38717351 432.12905784 597 431 C595.52471195 430.82118781 594.04434087 430.68254552 592.5625 430.5703125 C591.67763916 430.49893066 590.79277832 430.42754883 589.88110352 430.35400391 C588.45495728 430.24064697 588.45495728 430.24064697 587 430.125 C577.40854102 429.30334446 567.9731421 428.06788669 558.48974609 426.4296875 C555.85534963 425.97503582 553.21885771 425.53407623 550.58203125 425.09375 C532.62397774 422.06354159 514.77615027 418.49709561 496.984375 414.61328125 C493.97733049 413.99534148 490.96894222 413.48298885 487.9375 413 C470.14676966 410.14676966 470.14676966 410.14676966 468 408 C463.38372477 408.452576 459.3647303 409.48913182 455 411 C453.23166147 411.48829317 451.46052351 411.9665021 449.6875 412.4375 C446.3311656 413.33852937 443.03195574 414.29595018 439.75 415.4375 C434.40261219 417.27808638 428.9275766 418.63275044 423.453125 420.03515625 C420.50730641 420.85825262 417.83133827 421.86573298 415 423 C412.29638796 423.80096614 409.59492424 424.57188275 406.875 425.3125 C406.09237793 425.5276123 405.30975586 425.74272461 404.50341797 425.96435547 C365.68259139 436.58973376 365.68259139 436.58973376 350.41015625 439.4921875 C347.98624233 440.0028987 345.72290856 440.7147463 343.375 441.5 C338.73415851 442.93167539 334.33592657 443.41877471 329.5078125 443.76171875 C326.17817038 444.07808662 323.19757697 445.02446804 320 446 C311.8236564 447.89922942 303.58680082 449.49241256 295.33032227 450.99780273 C291.68294895 451.65736096 291.68294895 451.65736096 288.08154297 452.52514648 C285.78072251 453.05002284 283.65513077 453.17624912 281.296875 453.24609375 C280.39839844 453.27896484 279.49992187 453.31183594 278.57421875 453.34570312 C276.70713851 453.40638969 274.8399465 453.46373924 272.97265625 453.51757812 C267.3433107 453.73038505 262.42363451 454.48491949 257 456 C250.04900918 457.23625004 243.0364371 457.10715386 236 457 C236 457.66 236 458.32 236 459 C234.79166504 459.08040527 233.58333008 459.16081055 232.33837891 459.24365234 C227.76437531 459.54908321 223.19074006 459.85976905 218.6171875 460.171875 C216.65471604 460.30509761 214.69215304 460.43698005 212.72949219 460.56738281 C209.87408484 460.75735362 207.0190651 460.95248744 204.1640625 461.1484375 C203.31639313 461.20373627 202.46872375 461.25903503 201.59536743 461.31600952 C197.35893494 461.61129754 193.14366255 461.97049883 188.92881775 462.49073792 C178.23163419 463.80444671 167.76043735 464.28307828 156.98828125 464.23046875 C155.32032813 464.22926995 153.65237431 464.22882526 151.98442078 464.2290802 C148.51634384 464.22753238 145.0483726 464.21938088 141.58032227 464.20581055 C137.20810025 464.18888791 132.835993 464.18509238 128.46374226 464.18561363 C105.15464456 464.18501391 81.92056015 463.98406417 58.70288086 461.69775391 C56.61183485 461.49257556 54.51992388 461.29860868 52.42773438 461.10546875 C42.27783855 460.13891928 42.27783855 460.13891928 40 459 C38.12380475 458.73186738 36.24060241 458.51204575 34.35546875 458.31640625 C33.20240234 458.19330078 32.04933594 458.07019531 30.86132812 457.94335938 C29.0427832 457.75483398 29.0427832 457.75483398 27.1875 457.5625 C24.826525 457.3166464 22.4658439 457.06795368 20.10546875 456.81640625 C19.05512451 456.70756104 18.00478027 456.59871582 16.92260742 456.48657227 C11.26453154 455.78472716 5.63514117 454.8669448 0 454 C0 304.18 0 154.36 0 0 Z " fill="#ECF6FD" transform="translate(0,0)"/>
<path d="M0 0 C1.39460787 -0.00322348 2.78921542 -0.00658832 4.18382263 -0.01008606 C7.10977965 -0.01606103 10.03570724 -0.01792817 12.96166992 -0.01733398 C15.91616028 -0.01725345 18.87049318 -0.02407828 21.82495117 -0.0378418 C37.34256557 -0.10915225 52.73299157 -0.04090148 68.17822266 1.68823242 C74.17508237 2.35343835 80.18832652 2.5534489 86.21568298 2.75093079 C90.91572666 2.90930587 95.20147028 3.61924095 99.76928711 4.71777344 C102.76113437 5.35861051 105.69198293 5.45293827 108.74609375 5.54296875 C128.28124892 6.41706283 147.84994409 10.52263141 167.06713867 13.99047852 C170.9581743 14.68315712 174.84977569 15.32300249 178.76171875 15.88671875 C186.95659906 17.07629815 194.55760876 18.44976844 202.3671875 21.328125 C204.68372226 22.10512184 206.69875811 22.50177039 209.12109375 22.73046875 C212.56749575 23.13254898 215.1942618 24.00608688 218.38671875 25.29296875 C221.57881292 26.41722833 224.83378917 27.19433047 228.12109375 27.98046875 C237.09598761 30.13963989 245.89450708 32.82033074 254.71972656 35.51733398 C257.76020639 36.43686176 260.81449262 37.30364275 263.87109375 38.16796875 C278.32796405 42.27835417 292.65979904 46.62295134 306.87011719 51.52294922 C308.85482354 52.16272401 310.84280103 52.68620657 312.87109375 53.16796875 C312.87109375 53.82796875 312.87109375 54.48796875 312.87109375 55.16796875 C313.65484375 55.08546875 314.43859375 55.00296875 315.24609375 54.91796875 C318.62884557 55.15126198 320.36529891 55.66998017 323.40234375 56.98046875 C328.83304555 59.21950329 334.33802168 60.86040958 339.99609375 62.41796875 C340.95257813 62.68609375 341.9090625 62.95421875 342.89453125 63.23046875 C345.21872452 63.88124287 347.54418318 64.52699256 349.87109375 65.16796875 C349.87109375 65.82796875 349.87109375 66.48796875 349.87109375 67.16796875 C350.45375 67.27753906 351.03640625 67.38710938 351.63671875 67.5 C360.69878499 69.25256941 369.63445599 71.30789407 378.359375 74.33984375 C383.80429088 76.13505707 389.35147053 77.621218 394.87109375 79.16796875 C394.87109375 79.82796875 394.87109375 80.48796875 394.87109375 81.16796875 C395.53109375 81.49796875 396.19109375 81.82796875 396.87109375 82.16796875 C392.8494499 84.90610924 388.87066691 86.11002622 384.18359375 87.16796875 C382.75478913 87.50735459 381.32640122 87.84849957 379.8984375 88.19140625 C379.20862793 88.35608398 378.51881836 88.52076172 377.80810547 88.69042969 C372.7428453 89.93918806 367.75476702 91.46159128 362.87109375 93.29296875 C358.59665464 94.53968016 354.29904258 94.83543504 349.87109375 95.16796875 C349.87109375 95.82796875 349.87109375 96.48796875 349.87109375 97.16796875 C349.30302002 97.29848633 348.73494629 97.42900391 348.1496582 97.56347656 C338.22086814 99.85573943 328.4107792 102.21386032 318.70703125 105.33203125 C315.06323975 106.40609651 311.41598537 107.05808431 307.671875 107.67578125 C304.60410759 108.21488682 301.59095882 108.89412797 298.55859375 109.60546875 C281.08222133 113.69218803 263.63101484 116.72575983 245.80078125 118.73828125 C242.98684718 118.85321173 242.98684718 118.85321173 241.87109375 120.16796875 C240.16468026 120.51338365 238.44706156 120.80377652 236.7265625 121.0703125 C235.65599609 121.23853516 234.58542969 121.40675781 233.48242188 121.58007812 C232.35255859 121.75345703 231.22269531 121.92683594 230.05859375 122.10546875 C227.86452151 122.44752032 225.67051088 122.78996733 223.4765625 123.1328125 C222.37530029 123.30353271 221.27403809 123.47425293 220.1394043 123.65014648 C217.03485917 124.1420222 213.93764892 124.66677952 210.83984375 125.19921875 C192.05041685 128.3485522 173.09431634 129.83267634 154.0703125 130.41015625 C153.36610168 130.43163727 152.66189087 130.45311829 151.93634033 130.47525024 C148.37877496 130.58274004 144.82120535 130.68468534 141.26318359 130.77587891 C139.92545538 130.81281302 138.58772751 130.84975917 137.25 130.88671875 C136.06994385 130.91701172 134.8898877 130.94730469 133.67407227 130.97851562 C130.84426311 131.11948834 128.10894647 131.35333057 125.30004883 131.67285156 C118.7495355 132.35464166 112.20951011 132.34884596 105.62890625 132.37109375 C104.2366585 132.37790359 102.84441099 132.3847611 101.4521637 132.3916626 C97.73471487 132.40738817 94.01731094 132.41382323 90.29983139 132.41635132 C88.76311052 132.41743024 87.22638997 132.41916032 85.68967056 132.42153931 C56.65984931 132.46555745 27.82764903 131.33581864 -1.12890625 129.16796875 C-1.12890625 128.50796875 -1.12890625 127.84796875 -1.12890625 127.16796875 C-2.48822266 127.18537109 -2.48822266 127.18537109 -3.875 127.203125 C-10.71507264 127.2537922 -17.36035658 127.20045938 -24.12890625 126.16796875 C-24.62390625 125.67296875 -24.62390625 125.67296875 -25.12890625 125.16796875 C-31.39890625 124.17796875 -37.66890625 123.18796875 -44.12890625 122.16796875 C-44.12890625 82.89796875 -44.12890625 43.62796875 -44.12890625 3.16796875 C-37.38967562 2.04476364 -37.38967562 2.04476364 -34.0703125 1.88671875 C-33.35423828 1.84933594 -32.63816406 1.81195313 -31.90039062 1.7734375 C-31.17142578 1.73863281 -30.44246094 1.70382812 -29.69140625 1.66796875 C-28.2342293 1.59802426 -26.77719035 1.52513871 -25.3203125 1.44921875 C-24.68295166 1.41892578 -24.04559082 1.38863281 -23.38891602 1.35742188 C-21.01566439 1.19283832 -21.01566439 1.19283832 -18.25 0.66088867 C-12.21577139 -0.22167113 -6.08341612 0.00514166 0 0 Z " fill="#B6DEFC" transform="translate(44.12890625,316.83203125)"/>
<path d="M0 0 C0.9124221 -0.00052242 1.82484421 -0.00104485 2.76491547 -0.0015831 C20.73961983 -0.01103041 38.71039858 0.00012986 56.67578125 0.63671875 C57.78189255 0.67521439 58.88800385 0.71371002 60.02763367 0.75337219 C67.42326389 1.05775463 67.42326389 1.05775463 70.8125 2.1875 C73.09521809 2.43015257 75.38286107 2.6272953 77.671875 2.80078125 C79.09841779 2.91320534 80.5249302 3.02601545 81.95141602 3.13916016 C82.70351349 3.19775208 83.45561096 3.25634399 84.23049927 3.31671143 C97.32007302 4.34551441 110.35446818 5.61708986 123.375 7.3125 C124.38173767 7.44176376 124.38173767 7.44176376 125.40881348 7.57363892 C136.43410634 8.99830317 136.43410634 8.99830317 138.8125 10.1875 C138.8125 21.4075 138.8125 32.6275 138.8125 44.1875 C134.2646875 44.3421875 134.2646875 44.3421875 129.625 44.5 C121.45690906 44.84526494 113.50751249 45.69355557 105.4375 46.96679688 C98.19461134 48.07422405 90.95182691 48.72670492 83.65139771 49.3309021 C67.03435711 50.71755323 50.80170615 53.43099032 34.42456055 56.51416016 C23.89431875 58.47714812 13.37533989 59.88611979 2.72851562 61.04296875 C-2.8006468 61.67351701 -7.87912874 62.53554592 -13.1875 64.1875 C-14.57768855 64.37983782 -15.9746038 64.53275833 -17.375 64.625 C-20.85197383 64.94936328 -24.06035032 65.62188287 -27.4296875 66.53125 C-34.52996046 68.34386646 -41.68830352 69.6238828 -48.9050293 70.86743164 C-51.11912332 71.24898727 -53.3320846 71.63661915 -55.54492188 72.02539062 C-66.80412156 73.99467941 -78.0650297 75.93564803 -89.4375 77.125 C-90.97796447 77.29074085 -92.51832323 77.45746623 -94.05859375 77.625 C-94.8769873 77.71394531 -95.69538086 77.80289063 -96.53857422 77.89453125 C-122.34053942 80.71459574 -122.34053942 80.71459574 -147.98336792 84.68946838 C-153.09323861 85.4837169 -158.208125 85.56548992 -163.37109375 85.73828125 C-164.59485214 85.78012039 -165.81861053 85.82195953 -167.07945251 85.86506653 C-181.28837153 86.30902396 -195.49674331 86.37479813 -209.71166992 86.37280273 C-212.72475219 86.37272176 -215.73768144 86.37964462 -218.75073242 86.39331055 C-235.78098839 86.46923118 -252.74047954 86.21462312 -269.74609375 85.23828125 C-270.50989916 85.1950643 -271.27370457 85.15184734 -272.06065559 85.10732079 C-284.60526519 84.38157827 -284.60526519 84.38157827 -288.1875 83.1875 C-289.96397554 83.00621613 -291.74509135 82.86874294 -293.52734375 82.7578125 C-294.59146484 82.68433594 -295.65558594 82.61085938 -296.75195312 82.53515625 C-298.9651406 82.38906281 -301.1786849 82.2482586 -303.39257812 82.11328125 C-308.79274733 81.73148379 -313.84220527 81.12797764 -319.07421875 79.7109375 C-326.00178046 77.84317626 -332.92881131 77.27532175 -340.0625 76.6875 C-348.87289872 75.95705753 -357.36448761 74.90573524 -365.98535156 72.90698242 C-371.01470799 71.77694938 -376.0957408 70.98017314 -381.1875 70.1875 C-381.1875 69.5275 -381.1875 68.8675 -381.1875 68.1875 C-384.4875 67.8575 -387.7875 67.5275 -391.1875 67.1875 C-391.5175 66.1975 -391.8475 65.2075 -392.1875 64.1875 C-385.71734165 61.67840316 -379.30418925 59.63925861 -372.5546875 58.03515625 C-368.56273806 57.03022234 -364.63021272 55.86857118 -360.6875 54.6875 C-355.8747937 53.24918955 -351.07153224 51.86825505 -346.1875 50.6875 C-341.53681456 49.56101462 -336.95672743 48.25117498 -332.375 46.875 C-324.47380692 44.50690603 -316.5120307 42.41460685 -308.52441406 40.359375 C-301.98680499 38.6728168 -295.49677425 36.88270554 -289.02734375 34.94921875 C-284.43841617 33.71835097 -280.06280637 33.05302566 -275.3125 33.125 C-274.14074219 33.13853516 -274.14074219 33.13853516 -272.9453125 33.15234375 C-272.36523438 33.16394531 -271.78515625 33.17554688 -271.1875 33.1875 C-271.1875 32.5275 -271.1875 31.8675 -271.1875 31.1875 C-261.86246983 28.86188715 -252.68798229 26.84745883 -243.1484375 25.625 C-240.71647762 25.26566028 -238.52415437 24.79716862 -236.1875 24.0625 C-233.04562268 23.14611912 -230.44206436 23.02874076 -227.1875 23.1875 C-227.1875 22.5275 -227.1875 21.8675 -227.1875 21.1875 C-224.60430073 20.7284006 -222.02096122 20.27012144 -219.4375 19.8125 C-218.66849365 19.67602051 -217.8994873 19.53954102 -217.10717773 19.39892578 C-211.54990079 18.41669863 -205.98556023 17.49145993 -200.41015625 16.6171875 C-198.15906553 16.28549737 -198.15906553 16.28549737 -196.1875 15.1875 C-194.43219892 14.85128516 -192.66869254 14.55743231 -190.90234375 14.28515625 C-189.82154541 14.11798096 -188.74074707 13.95080566 -187.62719727 13.77856445 C-186.47147217 13.60413818 -185.31574707 13.42971191 -184.125 13.25 C-182.95445068 13.07106201 -181.78390137 12.89212402 -180.57788086 12.70776367 C-172.49556282 11.48922613 -164.4132314 10.43888252 -156.28515625 9.58203125 C-153.15841623 9.28549064 -153.15841623 9.28549064 -150.1875 8.1875 C-148.37879862 7.98370266 -146.56513408 7.82249005 -144.75 7.6875 C-143.69039062 7.605 -142.63078125 7.5225 -141.5390625 7.4375 C-139.3046875 7.27083333 -137.0703125 7.10416667 -134.8359375 6.9375 C-133.77632812 6.855 -132.71671875 6.7725 -131.625 6.6875 C-130.65433594 6.6153125 -129.68367188 6.543125 -128.68359375 6.46875 C-126.06093236 6.26087609 -126.06093236 6.26087609 -123.1875 5.1875 C-82.43460335 -0.14108055 -41.01368576 0.00529799 0 0 Z " fill="#B2DDFC" transform="translate(885.1875,331.8125)"/>
<path d="M0 0 C17.85649203 -0.738041 17.85649203 -0.738041 26 4 C26 4.66 26 5.32 26 6 C26.680625 6.04125 27.36125 6.0825 28.0625 6.125 C31.71410648 7.21271257 33.68401894 9.07439441 36.44921875 11.625 C37.96989228 13.09276455 37.96989228 13.09276455 40 14 C40 14.66 40 15.32 40 16 C41.32 16.33 42.64 16.66 44 17 C44 17.66 44 18.32 44 19 C44.73347656 19.12761719 45.46695313 19.25523437 46.22265625 19.38671875 C48.8309618 19.9626737 50.99560487 20.75025446 53.4375 21.8125 C63.46808351 25.93568455 74.17348846 28.50115095 84.75390625 30.82421875 C93.28998075 32.7590623 100.75658119 35.42619332 108.59765625 39.31640625 C110.99682346 40.50359462 113.34124476 41.57500075 115.80859375 42.58984375 C119 44 119 44 121 46 C122.69260828 46.72333687 124.38624187 47.44447298 126.08740234 48.14746094 C129.16881212 49.52099718 131.98790119 51.29572079 134.8125 53.125 C135.41707031 53.51461914 136.02164062 53.90423828 136.64453125 54.30566406 C141.44197369 57.47431381 145.70049787 61.03943537 149.87109375 65.00390625 C151.7001953 66.71889871 153.55142943 68.19940286 155.5625 69.6875 C158 72 158 72 159.25 75 C159 78 159 78 156.25 80.6875 C155.1775 81.450625 154.105 82.21375 153 83 C152.1646875 83.8971875 152.1646875 83.8971875 151.3125 84.8125 C150 86 150 86 147 86 C147 86.66 147 87.32 147 88 C140.24290558 92.83345313 132.78770007 96.06305015 125.01953125 98.8828125 C122.43886724 99.8376248 119.9860776 100.88990764 117.5 102.0625 C107.13882226 106.69433709 96.46360368 108.80076161 85.33911133 110.69335938 C84.4189624 110.84998047 83.49881348 111.00660156 82.55078125 111.16796875 C81.72231689 111.30485107 80.89385254 111.4417334 80.0402832 111.58276367 C77.94532053 111.91944605 77.94532053 111.91944605 76 113 C74.63312679 113.18117136 73.26061286 113.320965 71.88671875 113.4375 C61.43735887 114.51248272 54.44595466 115.98962972 46.08984375 122.58203125 C35.71098298 130.70404745 24.37745793 136.74014624 11 136 C9.75210858 132.4546661 10.29222185 130.3399567 11.4375 126.8125 C12.96424893 121.6493127 13.26368184 117.36153073 13 112 C8.33003974 110.41985798 3.65121371 108.87939269 -1.05859375 107.421875 C-10.1537318 104.60217215 -19.18078831 101.69118868 -28.0625 98.25 C-28.79331787 97.96866211 -29.52413574 97.68732422 -30.27709961 97.39746094 C-34.08473381 95.89074942 -37.52834108 94.16124741 -41 92 C-42.99117408 91.30741771 -44.9921136 90.64252365 -47 90 C-49.35343986 89.04154264 -51.67368195 88.02357994 -54 87 C-54 86.34 -54 85.68 -54 85 C-54.845625 84.9175 -55.69125 84.835 -56.5625 84.75 C-59.5880285 84.08988469 -61.03077691 83.50872288 -63.5625 81.9375 C-67.60548452 79.65199928 -67.60548452 79.65199928 -72 80 C-74.47781263 81.58954018 -76.70440111 83.18146268 -79 85 C-84.88325111 89.49801817 -90.83492681 93.4829208 -97.1953125 97.28515625 C-99.51913335 98.70598822 -101.69770007 100.18194427 -103.875 101.8125 C-110.77281434 106.64097004 -119.60669681 109.83204701 -128.125 108.625 C-129.07375 108.41875 -130.0225 108.2125 -131 108 C-130.3436708 104.9972727 -129.35569988 102.40322781 -128.0390625 99.62890625 C-127.64976562 98.80712891 -127.26046875 97.98535156 -126.859375 97.13867188 C-126.45203125 96.28853516 -126.0446875 95.43839844 -125.625 94.5625 C-125.22539062 93.71623047 -124.82578125 92.86996094 -124.4140625 91.99804688 C-122.8325762 88.67640541 -121.29334928 85.45971634 -119.3125 82.35546875 C-117.57662773 79.24019798 -117.04016335 76.24393497 -116.375 72.75 C-115.08997429 66.08997429 -115.08997429 66.08997429 -114 65 C-113.03087261 53.31456016 -114.40602653 41.42388636 -120.66796875 31.359375 C-122.89584528 27.4132242 -124.32953389 23.16345321 -125.88671875 18.91796875 C-126.80381828 16.51420262 -127.79653517 14.26954784 -129 12 C-121.38445882 11.26773642 -115.83923859 13.80835533 -109 17 C-109 17.66 -109 18.32 -109 19 C-108.46375 19.103125 -107.9275 19.20625 -107.375 19.3125 C-104.37497956 20.18092697 -101.7620465 21.55620296 -99 23 C-99 23.66 -99 24.32 -99 25 C-98.0925 25.268125 -97.185 25.53625 -96.25 25.8125 C-93.27008166 26.90131632 -91.31409641 27.86391101 -89 30 C-89 30.66 -89 31.32 -89 32 C-88.38125 32.144375 -87.7625 32.28875 -87.125 32.4375 C-85 33 -85 33 -83 34 C-83 34.66 -83 35.32 -83 36 C-82.401875 36.28875 -81.80375 36.5775 -81.1875 36.875 C-79 38 -79 38 -76 40 C-76 40.66 -76 41.32 -76 42 C-72.25447476 44.49701683 -68.3384827 44.63641428 -64 44 C-61.78539329 43.1721894 -59.7068709 42.16879479 -57.578125 41.140625 C-43.22160094 34.78895072 -26.07841878 32.328344 -10.58984375 30.39453125 C-8.02209766 30.13913712 -8.02209766 30.13913712 -6 29 C-3.66810655 28.73044167 -1.33678493 28.55492623 1.00390625 28.37890625 C1.66261719 28.25386719 2.32132813 28.12882813 3 28 C5.43499861 23.13000279 4.67793432 16.17886315 3.10546875 11.125 C2.40085058 9.45184308 1.6606114 7.79294042 0.875 6.15625 C0 4 0 4 0 0 Z " fill="#0E5BC6" transform="translate(269,561)"/>
<path d="M0 0 C-0.75903614 7.3373494 -0.75903614 7.3373494 -2 10.75 C-3.54305206 15.76491919 -3.6514469 20.77170356 -4 26 C0.29 26.66 4.58 27.32 9 28 C9.33 28.99 9.66 29.98 10 31 C11.546875 30.9071875 11.546875 30.9071875 13.125 30.8125 C21.56605685 30.79742668 30.08503451 33.23337072 38 36 C38 36.66 38 37.32 38 38 C38.85658203 38.03867187 38.85658203 38.03867187 39.73046875 38.078125 C45.00690135 38.44722362 49.65338222 39.41359337 54.6875 41.0625 C61.24339076 43.19925569 61.24339076 43.19925569 68 43 C70.75256794 41.14835964 70.75256794 41.14835964 73 39 C73.99 38.67 74.98 38.34 76 38 C77.68759342 36.35452621 79.35164 34.68477443 81 33 C93.03530219 22.84801634 106.77468879 14.30956123 123 15 C121.88074588 17.98467764 120.59908452 20.80450757 119.125 23.625 C115.53843484 30.73096618 112.70772944 38.03804385 112 46 C111.34 46 110.68 46 110 46 C109.5063775 56.92551126 109.54360146 67.21836719 112.25 77.875 C112.45455811 78.68743164 112.65911621 79.49986328 112.86987305 80.33691406 C114.27085643 85.41964998 116.24870581 89.50899857 119 94 C120.85715734 97.9894491 122.33957964 101.64122565 123 106 C112.48166526 106.47440943 102.07931155 102.67421389 94 96 C91.7150851 94.59389853 89.40558647 93.23721417 87.08984375 91.8828125 C82.79499222 89.29787382 79.55750548 86.55750548 76 83 C72.40618349 80.26149682 69.31773359 78.20670331 64.8125 77.5 C61.59164977 78.0725956 59.7906305 79.31264203 57 81 C54.02910139 81.82803762 51.03159195 82.43859408 48 83 C48 83.66 48 84.32 48 85 C46.96939453 85.39832031 46.96939453 85.39832031 45.91796875 85.8046875 C45.01691406 86.15789062 44.11585938 86.51109375 43.1875 86.875 C42.29417969 87.22304688 41.40085937 87.57109375 40.48046875 87.9296875 C37.82288409 88.98832155 37.82288409 88.98832155 35 91 C33.125 91.4921875 33.125 91.4921875 31 91.875 C27.41133607 92.61128485 24.1110482 93.6344708 20.6875 94.9375 C15.77306844 96.80373983 10.8602484 98.07749327 5.7265625 99.19140625 C2.94987951 99.88736547 2.94987951 99.88736547 0.57421875 101.484375 C-2.50902081 103.29969662 -5.32015276 103.94669907 -8.8125 104.6875 C-9.97394531 104.93886719 -11.13539063 105.19023438 -12.33203125 105.44921875 C-13.21246094 105.63097656 -14.09289062 105.81273437 -15 106 C-15.41819787 112.48206693 -14.64236578 116.75997272 -11.875 122.640625 C-10.90928114 125.24461693 -10.84370198 127.24524745 -11 130 C-21.57037788 130.77031094 -28.08139154 130.12341776 -37 124 C-37.98742187 123.36191406 -38.97484375 122.72382812 -39.9921875 122.06640625 C-45.76830869 118.29649509 -51.41630108 114.34181849 -57.0390625 110.34765625 C-60.54192268 107.9403121 -63.16252967 107.75769372 -67.3203125 107.4765625 C-70.32646021 106.94194148 -72.96230472 105.84723447 -75.79638672 104.73974609 C-79.60739375 103.46040294 -83.52577987 103.01671241 -87.5 102.5 C-93.75656602 101.68654599 -99.15284029 100.41396502 -105 98 C-105 97.34 -105 96.68 -105 96 C-105.99 95.896875 -106.98 95.79375 -108 95.6875 C-122.51499042 93.59811106 -141.25618761 83.35263038 -150.390625 72.0390625 C-152 69 -152 69 -151.96875 66.3671875 C-149.09764326 59.35149926 -140.3732768 52.83354996 -134 49 C-132.68 49 -131.36 49 -130 49 C-130 48.34 -130 47.68 -130 47 C-128.845 46.443125 -127.69 45.88625 -126.5 45.3125 C-122.88213616 43.51313915 -119.51136266 41.48788974 -116.15234375 39.24609375 C-102.34186899 31.25055573 -83.66191621 24.82681566 -67.8125 23.5 C-54.75251001 22.39955569 -43.18501019 15.10131327 -32.69140625 7.734375 C-30.15481835 6.09976683 -27.81831924 5.04382194 -25 4 C-24.29101562 3.64679687 -23.58203125 3.29359375 -22.8515625 2.9296875 C-15.29774394 -0.64843708 -8.18162921 -0.3927182 0 0 Z " fill="#0D56C0" transform="translate(751,665)"/>
<path d="M0 0 C1.47870971 -0.05556738 2.95808244 -0.09347512 4.4375 -0.125 C5.26121094 -0.14820313 6.08492188 -0.17140625 6.93359375 -0.1953125 C9.52081405 -0.0305214 11.66211196 0.34273219 14.1640625 0.94140625 C19.38764589 2.1706129 24.59733188 2.63093336 29.9375 3.0625 C31.80108475 3.21642065 33.66438826 3.3737979 35.52734375 3.53515625 C36.74538696 3.63389038 36.74538696 3.63389038 37.98803711 3.73461914 C40 4 40 4 42 5 C46.17296687 5.55605593 50.36761435 5.9152893 54.55932617 6.30224609 C56.60736603 6.4925538 58.65421455 6.6929616 60.70117188 6.89453125 C83.89167829 9.11556345 107.13714488 9.21481083 130.41235352 9.24023438 C133.83336087 9.24461124 137.25411493 9.2585065 140.67504883 9.28125 C161.34780978 9.41589845 181.53779607 8.8187405 202.07878113 6.33319092 C212.01373693 5.2000211 222.00456098 4.809409 232 5 C228.14851189 7.56765874 224.67941869 7.59513694 220.1875 7.9375 C219.23883057 8.01540771 218.29016113 8.09331543 217.31274414 8.17358398 C215.12479566 8.35198725 212.93653486 8.52658383 210.74804688 8.69824219 C207.37846634 8.96952942 204.01144279 9.26023684 200.64421082 9.55870056 C169.66076355 12.29619305 138.91206713 13.28928931 107.8125 12.6875 C106.85126221 12.67062134 105.89002441 12.65374268 104.8996582 12.63635254 C94.48777589 12.44099004 84.20221916 12.00429979 73.86604309 10.68193054 C68.83025614 10.03853017 63.94031278 9.84988251 58.87109375 10.02734375 C57 10 57 10 56 9 C53.5921553 8.63798671 51.19990412 8.33216903 48.78125 8.0625 C48.04934448 7.97750244 47.31743896 7.89250488 46.56335449 7.80493164 C44.20935128 7.5325511 41.85470641 7.26622599 39.5 7 C37.94266303 6.82070559 36.38537073 6.64102269 34.828125 6.4609375 C28.71120409 5.75601595 22.59485125 5.05884783 16.46875 4.4375 C13 4 13 4 12 3 C9.45243896 2.71693766 6.90489978 2.55184214 4.34765625 2.37890625 C2 2 2 2 0 0 Z " fill="#8AC4F7" transform="translate(0,454)"/>
<path d="M0 0 C-3.49465797 2.32977198 -5.7958053 2.54533141 -9.9375 3.0625 C-14.49674105 3.59947039 -14.49674105 3.59947039 -18.98828125 4.50390625 C-22.04048343 5.25658523 -25.12817544 5.52052988 -28.25 5.875 C-33.87616692 6.53315538 -39.38942237 7.4263631 -44.9375 8.5625 C-51.25439675 9.83583579 -57.43626724 10.37927772 -63.8684082 10.65649414 C-68.03083761 10.84636602 -72.01518223 11.26012479 -76.125 12 C-83.47651067 13.26750184 -90.86466318 13.42988519 -98.30712891 13.65820312 C-99.75418213 13.70557617 -99.75418213 13.70557617 -101.23046875 13.75390625 C-102.10082764 13.77783447 -102.97118652 13.8017627 -103.86791992 13.82641602 C-106.0525656 13.87079996 -106.0525656 13.87079996 -108 15 C-110.07639823 15.09681149 -112.15596572 15.12796723 -114.23461914 15.12939453 C-115.54680923 15.13254669 -116.85899933 15.13569885 -118.21095276 15.13894653 C-119.65235426 15.1371554 -121.09375546 15.13510411 -122.53515625 15.1328125 C-124.01289384 15.13348629 -125.49063132 15.13445694 -126.96836853 15.13571167 C-130.07291718 15.13718834 -133.17743711 15.13503724 -136.28198242 15.13037109 C-140.24044398 15.12470864 -144.1988372 15.12793072 -148.15729618 15.13394356 C-151.21413169 15.13757988 -154.27095138 15.13639596 -157.3277874 15.13381577 C-158.78566941 15.13315315 -160.2435529 15.13395142 -161.70143318 15.13629532 C-169.19884868 15.1456936 -176.56180459 15.03506706 -184 14 C-184 13.67 -184 13.34 -184 13 C-183.06327957 12.98786972 -183.06327957 12.98786972 -182.1076355 12.97549438 C-154.89627891 12.61743 -127.69069902 12.22787328 -100.5 11.0625 C-99.5794281 11.0249762 -98.6588562 10.98745239 -97.71038818 10.9487915 C-82.81213294 10.33125941 -68.07332484 9.12600243 -53.375 6.5625 C-44.90960688 5.08675659 -36.41655794 4.0026406 -27.88232422 3.00219727 C-26.90150879 2.88545654 -25.92069336 2.76871582 -24.91015625 2.6484375 C-24.03496338 2.54708496 -23.15977051 2.44573242 -22.25805664 2.34130859 C-19.8399587 2.04159276 -19.8399587 2.04159276 -17 1 C-11.35627139 0.28235162 -5.69076181 -0.15380437 0 0 Z " fill="#99D0FB" transform="translate(816,420)"/>
<path d="M0 0 C6.19013304 -0.36412547 11.4061684 0.71402029 17.40625 2.20703125 C22.49891148 3.33073808 27.6051048 3.90192655 32.78515625 4.47265625 C36 5 36 5 37.92236328 6.00219727 C40.22775604 7.10938178 41.91452161 7.33279428 44.45703125 7.4921875 C45.74226685 7.58693359 45.74226685 7.58693359 47.0534668 7.68359375 C47.96394775 7.74675781 48.87442871 7.80992187 49.8125 7.875 C56.18090621 8.38564091 62.05882086 9.08921089 68.1875 11 C76.30282386 13.43730528 84.47091038 13.84213851 92.90307617 14.31640625 C101.35059671 14.8134311 101.35059671 14.8134311 105.53515625 16.015625 C110.62545759 17.46179855 115.66946024 17.46803792 120.9375 17.625 C122.00291016 17.66367187 123.06832031 17.70234375 124.16601562 17.7421875 C126.77717734 17.83586146 129.38834304 17.92158335 132 18 C132.33 18.66 132.66 19.32 133 20 C126.91414048 21.19363543 121.39168123 20.7809077 115.25 20.125 C113.83267578 19.98771484 113.83267578 19.98771484 112.38671875 19.84765625 C105.43742028 19.14580676 105.43742028 19.14580676 102 18 C100.52471195 17.82118781 99.04434087 17.68254552 97.5625 17.5703125 C96.23520874 17.46323975 96.23520874 17.46323975 94.88110352 17.35400391 C93.93033936 17.27843262 92.9795752 17.20286133 92 17.125 C82.40854102 16.30334446 72.9731421 15.06788669 63.48974609 13.4296875 C60.85534963 12.97503582 58.21885771 12.53407623 55.58203125 12.09375 C36.96040516 8.95184278 18.34961135 5.4870819 0 1 C0 0.67 0 0.34 0 0 Z " fill="#9FD3FA" transform="translate(495,413)"/>
<path d="M0 0 C-0.33 0.66 -0.66 1.32 -1 2 C-2.890625 2.5625 -2.890625 2.5625 -5.25 3 C-7.7311514 3.46625664 -9.94197272 3.97672967 -12.2890625 4.91796875 C-15.82620735 6.32976864 -19.45577001 7.31339311 -23.125 8.3125 C-23.90762207 8.5276123 -24.69024414 8.74272461 -25.49658203 8.96435547 C-64.41538489 19.61655017 -64.41538489 19.61655017 -79.578125 22.48828125 C-82.06854353 23.01448258 -84.39968277 23.75562897 -86.8125 24.5625 C-91.40993772 25.98239831 -95.2113666 26.26603519 -100 26 C-97.78304651 23.78304651 -96.85612422 23.54194117 -93.87890625 22.8515625 C-93.03561768 22.65304687 -92.1923291 22.45453125 -91.32348633 22.25 C-90.41236084 22.04375 -89.50123535 21.8375 -88.5625 21.625 C-87.62108154 21.40585937 -86.67966309 21.18671875 -85.7097168 20.9609375 C-79.5948593 19.55048675 -73.46075015 18.25509904 -67.3125 17 C-60.57281035 15.61794408 -53.96489948 13.97014939 -47.35327148 12.07080078 C-39.07851431 9.70043231 -30.73613818 7.59675245 -22.38867188 5.4987793 C-17.63336548 4.28592545 -12.96410297 3.07177487 -8.3828125 1.30078125 C-5.25977509 0.09989042 -3.29186372 -0.30861222 0 0 Z " fill="#9BD0F9" transform="translate(430,417)"/>
<path d="M0 0 C0.763125 0.01804687 1.52625 0.03609375 2.3125 0.0546875 C3.1478125 0.08949219 3.1478125 0.08949219 4 0.125 C3.67 0.785 3.34 1.445 3 2.125 C0.19921875 2.72265625 0.19921875 2.72265625 -3.3125 3.1875 C-6.94608982 3.67984532 -10.45252894 4.20975247 -14 5.125 C-15.97663725 5.47301866 -17.95610505 5.80517837 -19.9375 6.125 C-25.88123348 7.08681781 -31.74244539 8.28108573 -37.625 9.5625 C-47.06639272 11.58283978 -56.37029316 13.33122807 -66 14.125 C-66 13.135 -66 12.145 -66 11.125 C-64.28490234 10.92583984 -64.28490234 10.92583984 -62.53515625 10.72265625 C-61.0442438 10.5444969 -59.55335982 10.36609918 -58.0625 10.1875 C-57.30775391 10.10048828 -56.55300781 10.01347656 -55.77539062 9.92382812 C-52.07812542 9.78175901 -52.07812542 9.78175901 -49 8.125 C-46.92219946 7.81455939 -44.83691773 7.55416688 -42.75 7.3125 C-36.13759455 6.49504352 -29.60610812 5.37605189 -23.0625 4.125 C-21.75007324 3.87592896 -21.75007324 3.87592896 -20.41113281 3.62182617 C-16.46672447 2.85736227 -12.5684475 2.03473825 -8.68359375 1.0078125 C-5.59567866 0.26776074 -3.14245795 -0.09820181 0 0 Z " fill="#92C9F8" transform="translate(899,403.875)"/>
<path d="M0 0 C0.66 0.33 1.32 0.66 2 1 C-10.06979185 9.70647041 -20.88994007 14.3179654 -35.56640625 16.421875 C-39.97805777 17.16467867 -44.23705276 18.29493047 -48.5390625 19.51171875 C-51 20 -51 20 -54 19 C-47.47637059 16.49745315 -41.26614522 14.75929444 -34.3125 13.9375 C-21.65564812 12.43256944 -10.35646194 7.47966696 0 0 Z " fill="#2377DC" transform="translate(715,675)"/>
<path d="M0 0 C-3.05846282 2.03897521 -4.10076091 2.30976746 -7.61328125 2.59765625 C-8.52505127 2.67653076 -9.43682129 2.75540527 -10.3762207 2.83666992 C-11.34519287 2.91119385 -12.31416504 2.98571777 -13.3125 3.0625 C-14.3027417 3.14411377 -15.2929834 3.22572754 -16.31323242 3.30981445 C-18.29705304 3.47178206 -20.28118659 3.62996572 -22.265625 3.78417969 C-24.59558051 3.96807975 -26.92260685 4.16946813 -29.25 4.3828125 C-35.70445692 4.93483842 -41.59241311 4.99428072 -48 4 C-48 3.67 -48 3.34 -48 3 C-42.93252796 2.56686304 -37.86458641 2.13987517 -32.79614258 1.71826172 C-31.07660385 1.57439016 -29.35719803 1.42891985 -27.63793945 1.28173828 C-18.41570455 0.49332971 -9.2667697 -0.28219685 0 0 Z " fill="#85C2F5" transform="translate(232,459)"/>
<path d="M0 0 C-10.33356168 3.19848338 -21.04101432 5.05989598 -31.66967773 6.99780273 C-35.43930161 7.68776462 -35.43930161 7.68776462 -39.1640625 8.58203125 C-41.40156471 9.09142005 -43.45823632 9.09620241 -45.75 9.0625 C-46.54921875 9.05347656 -47.3484375 9.04445313 -48.171875 9.03515625 C-48.77515625 9.02355469 -49.3784375 9.01195312 -50 9 C-50 8.67 -50 8.34 -50 8 C-38.17263616 5.11744706 -26.33108285 2.57912702 -14.3125 0.625 C-13.23234619 0.44549805 -12.15219238 0.26599609 -11.03930664 0.08105469 C-9.52904907 -0.15629395 -9.52904907 -0.15629395 -7.98828125 -0.3984375 C-7.09665283 -0.53942871 -6.20502441 -0.68041992 -5.28637695 -0.82568359 C-3 -1 -3 -1 0 0 Z " fill="#98CFF9" transform="translate(327,444)"/>
<path d="M0 0 C0 0.33 0 0.66 0 1 C-8.29261306 3.82061669 -16.61221014 6.18265801 -25.1328125 8.21875 C-28.00738185 8.9418403 -28.00738185 8.9418403 -30.69140625 10.0859375 C-33.27851661 11.11027561 -35.24265455 11.1575626 -38 11 C-32.77410453 5.77410453 -25.00237633 5.41612482 -18 5 C-18 4.34 -18 3.68 -18 3 C-11.88595404 1.14256832 -6.41481258 -0.42765417 0 0 Z " fill="#A7D5FA" transform="translate(468,406)"/>
<path d="M0 0 C-3.49465797 2.32977198 -5.7958053 2.54533141 -9.9375 3.0625 C-14.51456896 3.60032796 -14.51456896 3.60032796 -19.01953125 4.5234375 C-21.90843697 5.21859825 -24.78914635 5.35524024 -27.75 5.5625 C-29.50570312 5.68818359 -29.50570312 5.68818359 -31.296875 5.81640625 C-32.18890625 5.87699219 -33.0809375 5.93757813 -34 6 C-34 5.34 -34 4.68 -34 4 C-10.95279097 -0.29602138 -10.95279097 -0.29602138 0 0 Z " fill="#90CAFA" transform="translate(816,420)"/>
<path d="M0 0 C10.59771853 0.3006445 19.85976352 1.90758746 30 5 C30 5.33 30 5.66 30 6 C19.93530426 6.6394042 9.26853918 5.06050288 0 1 C0 0.67 0 0.34 0 0 Z " fill="#ADD9F9" transform="translate(541,421)"/>
<path d="M0 0 C6.70478899 -0.09607681 13.2634705 0.24652498 19.9375 0.875 C20.88173828 0.95363281 21.82597656 1.03226562 22.79882812 1.11328125 C24.14944336 1.23896484 24.14944336 1.23896484 25.52734375 1.3671875 C26.33937256 1.44050293 27.15140137 1.51381836 27.98803711 1.58935547 C30 2 30 2 32 4 C25.25 5.125 25.25 5.125 23 4 C21.26363303 3.7112098 19.51976678 3.46678371 17.7734375 3.24609375 C16.7421875 3.11396484 15.7109375 2.98183594 14.6484375 2.84570312 C13.02808594 2.64364258 13.02808594 2.64364258 11.375 2.4375 C10.28703125 2.29892578 9.1990625 2.16035156 8.078125 2.01757812 C5.38581132 1.67513472 2.69311346 1.33608589 0 1 C0 0.67 0 0.34 0 0 Z " fill="#79B9F3" transform="translate(33,459)"/>
<path d="M0 0 C1.89611434 0.14213297 3.79188394 0.28886907 5.6875 0.4375 C6.74324219 0.51871094 7.79898437 0.59992188 8.88671875 0.68359375 C11.65086297 0.96451681 14.28945741 1.40156852 17 2 C17 2.66 17 3.32 17 4 C18.093125 3.95875 19.18625 3.9175 20.3125 3.875 C24 4 24 4 27 6 C22.05735612 7.64754796 17.36411256 5.79920443 12.375 4.6875 C11.29992187 4.46126953 10.22484375 4.23503906 9.1171875 4.00195312 C8.09625 3.77830078 7.0753125 3.55464844 6.0234375 3.32421875 C5.08419434 3.11885498 4.14495117 2.91349121 3.17724609 2.7019043 C2.45875488 2.47027588 1.74026367 2.23864746 1 2 C0.67 1.34 0.34 0.68 0 0 Z " fill="#A5D5F9" transform="translate(468,407)"/>
<path d="M0 0 C-0.33 0.99 -0.66 1.98 -1 3 C-11.23 2.67 -21.46 2.34 -32 2 C-32 1.67 -32 1.34 -32 1 C-21.312837 0.20414744 -10.71600323 -0.12825004 0 0 Z " fill="#92C5F3" transform="translate(1024,388)"/>
<path d="M0 0 C1.16208984 0.01353516 1.16208984 0.01353516 2.34765625 0.02734375 C4.23190843 0.05060612 6.11599832 0.0864636 8 0.125 C7.67 0.785 7.34 1.445 7 2.125 C-0.84415043 3.53668072 -9.05809746 3.25173249 -17 3.125 C-17 2.795 -17 2.465 -17 2.125 C-11.16420924 0.44057858 -6.05539796 -0.13643011 0 0 Z " fill="#8BC6F6" transform="translate(984,390.875)"/>
<path d="M0 0 C0.66 0 1.32 0 2 0 C1.98952637 0.56920166 1.97905273 1.13840332 1.96826172 1.72485352 C1.92634282 4.3373563 1.90056112 6.94978799 1.875 9.5625 C1.85824219 10.45775391 1.84148438 11.35300781 1.82421875 12.27539062 C1.78494906 17.63570327 2.3390066 21.9132077 4 27 C4.125 30.4375 4.125 30.4375 4 33 C0.84626651 28.26939977 -0.25363977 24.72987801 -0.1953125 19.04296875 C-0.18886719 17.93115234 -0.18242188 16.81933594 -0.17578125 15.67382812 C-0.15902344 14.52333984 -0.14226563 13.37285156 -0.125 12.1875 C-0.11597656 11.01767578 -0.10695313 9.84785156 -0.09765625 8.64257812 C-0.07413732 5.76150947 -0.04126852 2.88086011 0 0 Z " fill="#2874D8" transform="translate(859,712)"/>
<path d="M0 0 C6.39291312 -0.49176255 11.07841197 0.88217353 17.08203125 3.05078125 C19.68796347 3.89849414 21.97209949 4.36662257 24.6875 4.625 C25.780625 4.74875 26.87375 4.8725 28 5 C28.33 5.66 28.66 6.32 29 7 C26.68682039 6.69257097 24.37446648 6.37892298 22.0625 6.0625 C20.77472656 5.88847656 19.48695313 5.71445312 18.16015625 5.53515625 C15 5 15 5 14 4 C11.6547231 3.44049636 9.29844204 2.92670421 6.9375 2.4375 C5.00197266 2.03337891 5.00197266 2.03337891 3.02734375 1.62109375 C2.02832031 1.41613281 1.02929688 1.21117187 0 1 C0 0.67 0 0.34 0 0 Z " fill="#D0E9FC" transform="translate(229,335)"/>
<path d="M0 0 C-7.25841493 4.83894329 -17.65459835 4.43886235 -26 3 C-26 2.67 -26 2.34 -26 2 C-22.60454455 1.66274171 -19.2085816 1.33088879 -15.8125 1 C-14.85279297 0.90460938 -13.89308594 0.80921875 -12.90429688 0.7109375 C-11.97294922 0.62070312 -11.04160156 0.53046875 -10.08203125 0.4375 C-9.22843018 0.35371094 -8.3748291 0.26992188 -7.49536133 0.18359375 C-4.98711079 -0.00094831 -2.51404403 -0.03149938 0 0 Z " fill="#9BCEF7" transform="translate(210,460)"/>
<path d="M0 0 C-2.42199462 2.42199462 -3.35091074 2.34907991 -6.6875 2.625 C-7.57566406 2.69847656 -8.46382813 2.77195312 -9.37890625 2.84765625 C-12.59962046 3.03485126 -15.77505997 3.07010739 -19 3 C-19 2.67 -19 2.34 -19 2 C-12.53991163 0.04978464 -6.7281627 -0.22262303 0 0 Z " fill="#94CCF9" transform="translate(276,453)"/>
<path d="M0 0 C-6.85882288 2.95870791 -13.61394333 4.04296522 -21 5 C-18.28432704 2.28432704 -15.23593892 1.75968758 -11.625 0.8125 C-10.95210937 0.62236328 -10.27921875 0.43222656 -9.5859375 0.23632812 C-6.09905932 -0.69373485 -3.42363738 -1.37823351 0 0 Z " fill="#2B7FE0" transform="translate(682,690)"/>
<path d="M0 0 C1.21236328 0.01353516 1.21236328 0.01353516 2.44921875 0.02734375 C3.37154297 0.04474609 3.37154297 0.04474609 4.3125 0.0625 C3.9825 0.7225 3.6525 1.3825 3.3125 2.0625 C0.15234375 2.4765625 0.15234375 2.4765625 -3.75 2.6875 C-5.04035156 2.76226562 -6.33070313 2.83703125 -7.66015625 2.9140625 C-8.65917969 2.96304687 -9.65820312 3.01203125 -10.6875 3.0625 C-6.91890928 0.55010618 -4.42510751 -0.06413199 0 0 Z " fill="#92CBF9" transform="translate(827.6875,416.9375)"/>
<path d="M0 0 C-4.17662748 2.78441832 -6.81953539 3.21506149 -11.75 2.5625 C-12.94882812 2.40974609 -12.94882812 2.40974609 -14.171875 2.25390625 C-14.77515625 2.17011719 -15.3784375 2.08632813 -16 2 C-16 1.67 -16 1.34 -16 1 C-10.63904667 -0.12862175 -5.44693314 -0.09688221 0 0 Z " fill="#A9D5F9" transform="translate(782,425)"/>
<path d="M0 0 C0.88751953 0.19916016 0.88751953 0.19916016 1.79296875 0.40234375 C5.85446525 1.31005178 9.91374171 2.2091113 14 3 C14 3.33 14 3.66 14 4 C7.07 3.505 7.07 3.505 0 3 C0 2.01 0 1.02 0 0 Z " fill="#D1E9FC" transform="translate(490,397)"/>
<path d="M0 0 C3.63 0 7.26 0 11 0 C10.67 0.66 10.34 1.32 10 2 C7.71484375 2.4140625 7.71484375 2.4140625 4.9375 2.625 C3.55884766 2.73714844 3.55884766 2.73714844 2.15234375 2.8515625 C1.44207031 2.90054687 0.73179687 2.94953125 0 3 C0 2.01 0 1.02 0 0 Z " fill="#73B8F3" transform="translate(981,391)"/>
<path d="M0 0 C6.0546875 -0.1953125 6.0546875 -0.1953125 8 0 C8.66 0.66 9.32 1.32 10 2 C5.94568308 3.15837626 3.78187881 2.83691257 0 1 C0 0.67 0 0.34 0 0 Z " fill="#B0DBFB" transform="translate(523,418)"/>
</svg>
